<svg width="46" height="55" viewBox="0 0 46 55" version="1.1" xmlns="http://www.w3.org/2000/svg" xmlns:xlink="http://www.w3.org/1999/xlink">
<title>Group</title>
<desc>Created using Figma</desc>
<g id="Canvas" transform="translate(-1794 205)">
<g id="Group">
<g id="Vector">
<use xlink:href="#path0_stroke" transform="translate(1796 -203)" fill="#C4C8D8"/>
</g>
<g id="Vector">
<use xlink:href="#path1_stroke" transform="translate(1810 -189.091)" fill="#C4C8D8"/>
</g>
</g>
</g>
<defs>
<path id="path0_stroke" d="M 42 20.8636L 44 20.8636L 44 20.8636L 42 20.8636ZM 21 51L 19.8956 52.6674C 20.5651 53.1109 21.4349 53.1109 22.1044 52.6674L 21 51ZM 0 20.8636L -2 20.8636L -2 20.8636L 0 20.8636ZM 21 -3.45436e-08L 21 2L 21 -3.45436e-08ZM 40 20.8636C 40 28.1685 35.2241 35.2135 30.0526 40.6368C 27.4994 43.318 24.9792 45.4712 23.0404 47.0046C 22.0816 47.7635 21.2989 48.3421 20.7364 48.7457C 20.4602 48.9439 20.2507 49.09 20.1021 49.1922C 20.0302 49.2417 19.9788 49.2766 19.9415 49.3018C 19.9241 49.3135 19.9126 49.3212 19.9037 49.3271C 19.8999 49.3297 19.8979 49.3311 19.8959 49.3324C 19.8952 49.3328 19.8952 49.3329 19.8948 49.3331C 19.8948 49.3331 19.895 49.333 19.895 49.333C 19.8952 49.3328 19.8956 49.3326 21 51C 22.1044 52.6674 22.1049 52.6671 22.1055 52.6667C 22.1058 52.6665 22.1065 52.666 22.1071 52.6656C 22.108 52.665 22.1099 52.6638 22.1117 52.6625C 22.1149 52.6605 22.1205 52.6567 22.1267 52.6526C 22.138 52.645 22.1567 52.6325 22.179 52.6175C 22.2212 52.589 22.2876 52.5438 22.3696 52.4875C 22.5286 52.378 22.7703 52.2094 23.0683 51.9956C 23.6542 51.5751 24.5121 50.9404 25.5221 50.1417C 27.5208 48.56 30.2506 46.2217 32.9474 43.3972C 38.2759 37.8092 44 29.7861 44 20.8636L 40 20.8636ZM 21 51C 22.1044 49.3326 22.1048 49.3328 22.105 49.333C 22.105 49.333 22.1052 49.3331 22.1052 49.3331C 22.1048 49.3329 22.1048 49.3328 22.1041 49.3324C 22.1021 49.3311 22.1001 49.3297 22.0963 49.3271C 22.0874 49.3212 22.0759 49.3135 22.0585 49.3018C 22.0212 49.2766 21.9698 49.2417 21.8979 49.1922C 21.7493 49.09 21.5398 48.9439 21.2636 48.7457C 20.7011 48.3421 19.9184 47.7635 18.9596 47.0046C 17.0208 45.4712 14.5006 43.318 11.9474 40.6368C 6.77594 35.2135 2 28.1685 2 20.8636L -2 20.8636C -2 29.7861 3.72406 37.8092 9.05258 43.3972C 11.7494 46.2217 14.4792 48.56 16.4779 50.1417C 17.4879 50.9404 18.3458 51.5751 18.9317 51.9956C 19.2297 52.2094 19.4714 52.378 19.6304 52.4875C 19.7124 52.5438 19.7788 52.589 19.821 52.6175C 19.8433 52.6325 19.862 52.645 19.8733 52.6526C 19.8795 52.6567 19.8851 52.6605 19.8883 52.6625C 19.8901 52.6638 19.892 52.665 19.8929 52.6656C 19.8935 52.666 19.8942 52.6665 19.8945 52.6667C 19.8951 52.6671 19.8956 52.6674 21 51ZM 2 20.8636C 2 15.8649 3.99859 11.0683 7.56036 7.52963L 4.74116 4.692C 0.426394 8.97875 -2 14.7956 -2 20.8636L 2 20.8636ZM 7.56036 7.52963C 11.1226 3.99056 15.9567 2 21 2L 21 -2C 14.9042 -2 9.05548 0.405696 4.74116 4.692L 7.56036 7.52963ZM 21 2C 26.0433 2 30.8774 3.99056 34.4396 7.52963L 37.2588 4.692C 32.9445 0.405696 27.0958 -2 21 -2L 21 2ZM 34.4396 7.52963C 38.0014 11.0683 40 15.8649 40 20.8636L 44 20.8636C 44 14.7956 41.5736 8.97875 37.2588 4.692L 34.4396 7.52963Z"/>
<path id="path1_stroke" d="M 12 6.95455C 12 9.6786 9.77373 11.9091 7 11.9091L 7 15.9091C 11.9583 15.9091 16 11.9123 16 6.95455L 12 6.95455ZM 7 11.9091C 4.22627 11.9091 2 9.6786 2 6.95455L -2 6.95455C -2 11.9123 2.04174 15.9091 7 15.9091L 7 11.9091ZM 2 6.95455C 2 4.23049 4.22627 2 7 2L 7 -2C 2.04174 -2 -2 1.99682 -2 6.95455L 2 6.95455ZM 7 2C 9.77373 2 12 4.23049 12 6.95455L 16 6.95455C 16 1.99682 11.9583 -2 7 -2L 7 2Z"/>
</defs>
</svg>
